<svg xmlns="http://www.w3.org/2000/svg" viewBox="0 0 34.44 40"><defs><style>.cls-1{fill:#fff;}</style></defs><g id="Layer_2" data-name="Layer 2"><g id="Layer_1-2" data-name="Layer 1"><path class="cls-1" d="M23,38.52a13.62,13.62,0,0,1-4.62,1.41c-4.55.38-9.11-.81-12.26-3.85C3,32.83,2.34,28.48,5.19,24.9c2.6-3.31,6.8-4.77,11.2-4.95,2.44-.12,10.69.89,8.25,4.82-1.95,3.26-7.32,0-10.42,1C10.74,27,9.79,31.56,13,33.51a8.13,8.13,0,0,0,8.07-.14c3.28-2.12,9.36-12,13.31-7.33C35.16,27,26,36.9,23,38.52M.1,12.8c-.33-1.63.11-3.48,1.78-3.25,1.41.21,1.89,2.22,2.17,3.63.21,1.19,3.14,9.66,1.62,9.39S.47,14.49.14,12.81M8,3.31c2.09-1.85,3.12,1.3,3.39,2.87s3,13,.05,12.8C9.17,18.82,7.65,9.06,7.48,7.53c-.21-1.19-.7-3.3.38-4.23M19.05.05c1.85.38,1.36,4.18,1.31,5.59s.16,12.86-2.23,12.54-1.84-11.62-2-13.41c.06-1.85.33-5.21,2.88-4.72m5.64,8.14c.23-1.14.44-3.26,1.78-3.75,2.54-1,2.49,2.17,2.22,3.7S26.42,21.05,23.75,20c-1.95-.82.6-10.31.89-11.78"/></g></g></svg>